<svg width="800" height="400" viewBox="0 0 800 400" xmlns="http://www.w3.org/2000/svg">
    <!-- Background -->
    <rect width="800" height="400" fill="#f9fafb" rx="10" ry="10" />
    
    <!-- Title -->
    <text x="400" y="40" font-family="Inter, sans-serif" font-size="20" font-weight="600" text-anchor="middle" fill="#111827">江苏省与广东省心理健康指标对比 (2020-2025)</text>
    
    <!-- Legend -->
    <g transform="translate(650, 80)">
        <rect x="0" y="0" width="16" height="16" fill="#3b82f6" rx="2" ry="2" />
        <text x="24" y="13" font-family="Inter, sans-serif" font-size="14" fill="#4b5563">江苏省</text>
        
        <rect x="0" y="30" width="16" height="16" fill="#f97316" rx="2" ry="2" />
        <text x="24" y="43" font-family="Inter, sans-serif" font-size="14" fill="#4b5563">广东省</text>
    </g>
    
    <!-- Radar Chart -->
    <g transform="translate(400, 220)">
        <!-- Guidelines -->
        <circle cx="0" cy="0" r="40" fill="none" stroke="#e5e7eb" stroke-width="1" />
        <circle cx="0" cy="0" r="80" fill="none" stroke="#e5e7eb" stroke-width="1" />
        <circle cx="0" cy="0" r="120" fill="none" stroke="#e5e7eb" stroke-width="1" />
        <circle cx="0" cy="0" r="160" fill="none" stroke="#e5e7eb" stroke-width="1" />
        
        <!-- Axis lines -->
        <line x1="0" y1="0" x2="0" y2="-160" stroke="#d1d5db" stroke-width="1" />
        <line x1="0" y1="0" x2="152" y2="-52" stroke="#d1d5db" stroke-width="1" />
        <line x1="0" y1="0" x2="94" y2="132" stroke="#d1d5db" stroke-width="1" />
        <line x1="0" y1="0" x2="-94" y2="132" stroke="#d1d5db" stroke-width="1" />
        <line x1="0" y1="0" x2="-152" y2="-52" stroke="#d1d5db" stroke-width="1" />
        
        <!-- Axis labels -->
        <text x="0" y="-175" font-family="Inter, sans-serif" font-size="12" text-anchor="middle" fill="#4b5563">青少年抑郁风险率</text>
        <text x="170" y="-52" font-family="Inter, sans-serif" font-size="12" text-anchor="start" fill="#4b5563">老年人心理服务覆盖率</text>
        <text x="105" y="152" font-family="Inter, sans-serif" font-size="12" text-anchor="start" fill="#4b5563">职场心理健康问题率</text>
        <text x="-105" y="152" font-family="Inter, sans-serif" font-size="12" text-anchor="end" fill="#4b5563">社区心理服务可及性</text>
        <text x="-175" y="-52" font-family="Inter, sans-serif" font-size="12" text-anchor="end" fill="#4b5563">医疗机构心理科室设置率</text>
        
        <!-- Value markers -->
        <text x="0" y="-165" font-family="Inter, sans-serif" font-size="10" text-anchor="middle" fill="#6b7280">25%</text>
        <text x="162" y="-52" font-family="Inter, sans-serif" font-size="10" text-anchor="start" fill="#6b7280">50%</text>
        <text x="100" y="142" font-family="Inter, sans-serif" font-size="10" text-anchor="start" fill="#6b7280">25%</text>
        <text x="-100" y="142" font-family="Inter, sans-serif" font-size="10" text-anchor="end" fill="#6b7280">50%</text>
        <text x="-162" y="-52" font-family="Inter, sans-serif" font-size="10" text-anchor="end" fill="#6b7280">50%</text>
        
        <!-- Data - Jiangsu Province -->
        <path d="M 0 -58.4 L 127.5 -43.35 L 52.5 73.5 L -115.8 47.88 L -135.6 -46.28 Z" fill="#3b82f6" fill-opacity="0.3" stroke="#3b82f6" stroke-width="2" />
        
        <!-- Data - Guangdong Province -->
        <path d="M 0 -60.8 L 113.4 -38.22 L 54.9 76.83 L -102.6 41.04 L -146.1 -49.83 Z" fill="#f97316" fill-opacity="0.3" stroke="#f97316" stroke-width="2" />
        
        <!-- Data points - Jiangsu Province -->
        <circle cx="0" cy="-58.4" r="4" fill="#3b82f6" />
        <circle cx="127.5" cy="-43.35" r="4" fill="#3b82f6" />
        <circle cx="52.5" cy="73.5" r="4" fill="#3b82f6" />
        <circle cx="-115.8" cy="47.88" r="4" fill="#3b82f6" />
        <circle cx="-135.6" cy="-46.28" r="4" fill="#3b82f6" />
        
        <!-- Data points - Guangdong Province -->
        <circle cx="0" cy="-60.8" r="4" fill="#f97316" />
        <circle cx="113.4" cy="-38.22" r="4" fill="#f97316" />
        <circle cx="54.9" cy="76.83" r="4" fill="#f97316" />
        <circle cx="-102.6" cy="41.04" r="4" fill="#f97316" />
        <circle cx="-146.1" cy="-49.83" r="4" fill="#f97316" />
    </g>
    
    <!-- Annotation -->
    <g transform="translate(600, 150)">
        <line x1="0" y1="0" x2="-50" y2="-20" stroke="#9ca3af" stroke-width="1" />
        <circle cx="0" cy="0" r="3" fill="#9ca3af" />
        <rect x="5" y="-30" width="160" height="60" rx="5" ry="5" fill="#f3f4f6" />
        <text x="85" y="-10" font-family="Inter, sans-serif" font-size="12" text-anchor="middle" fill="#4b5563">广东省在医疗机构心理科室</text>
        <text x="85" y="5" font-family="Inter, sans-serif" font-size="12" text-anchor="middle" fill="#4b5563">设置率方面略高于江苏省</text>
        <text x="85" y="20" font-family="Inter, sans-serif" font-size="12" text-anchor="middle" fill="#6b7280">(48.7% vs 45.2%)</text>
    </g>
    
    <g transform="translate(200, 150)">
        <line x1="0" y1="0" x2="50" y2="-20" stroke="#9ca3af" stroke-width="1" />
        <circle cx="0" cy="0" r="3" fill="#9ca3af" />
        <rect x="-160" y="-30" width="150" height="60" rx="5" ry="5" fill="#f3f4f6" />
        <text x="-85" y="-10" font-family="Inter, sans-serif" font-size="12" text-anchor="middle" fill="#4b5563">江苏省在社区心理服务</text>
        <text x="-85" y="5" font-family="Inter, sans-serif" font-size="12" text-anchor="middle" fill="#4b5563">可及性方面优于广东省</text>
        <text x="-85" y="20" font-family="Inter, sans-serif" font-size="12" text-anchor="middle" fill="#6b7280">(38.6% vs 34.2%)</text>
    </g>
    
    <!-- Source note -->
    <text x="100" y="390" font-family="Inter, sans-serif" font-size="11" fill="#9ca3af">数据来源: 江苏省和广东省"十四五"卫生健康发展规划及卫生健康委员会数据</text>
</svg>
